<svg width="160" height="48" viewBox="0 0 160 48" xmlns="http://www.w3.org/2000/svg">
  <defs>
    <!-- Gradienturi inspirate din logo-ul original -->
    <linearGradient id="cyanGradientCompact" x1="0%" y1="0%" x2="100%" y2="100%">
      <stop offset="0%" style="stop-color:#00ffff;stop-opacity:1" />
      <stop offset="50%" style="stop-color:#0088aa;stop-opacity:1" />
      <stop offset="100%" style="stop-color:#006677;stop-opacity:1" />
    </linearGradient>
    
    <linearGradient id="greenGradientCompact" x1="0%" y1="0%" x2="100%" y2="100%">
      <stop offset="0%" style="stop-color:#44ff44;stop-opacity:1" />
      <stop offset="50%" style="stop-color:#228822;stop-opacity:1" />
      <stop offset="100%" style="stop-color:#116611;stop-opacity:1" />
    </linearGradient>
    
    <linearGradient id="yellowGradientCompact" x1="0%" y1="0%" x2="100%" y2="100%">
      <stop offset="0%" style="stop-color:#ffff44;stop-opacity:1" />
      <stop offset="50%" style="stop-color:#aaaa22;stop-opacity:1" />
      <stop offset="100%" style="stop-color:#777711;stop-opacity:1" />
    </linearGradient>
    
    <linearGradient id="orangeGradientCompact" x1="0%" y1="0%" x2="100%" y2="100%">
      <stop offset="0%" style="stop-color:#ff8844;stop-opacity:1" />
      <stop offset="50%" style="stop-color:#aa4422;stop-opacity:1" />
      <stop offset="100%" style="stop-color:#772211;stop-opacity:1" />
    </linearGradient>
    
    <linearGradient id="multiColorGradientCompact" x1="0%" y1="0%" x2="100%" y2="100%">
      <stop offset="0%" style="stop-color:#00ffff;stop-opacity:1" />
      <stop offset="33%" style="stop-color:#44ff44;stop-opacity:1" />
      <stop offset="66%" style="stop-color:#ffff44;stop-opacity:1" />
      <stop offset="100%" style="stop-color:#ff8844;stop-opacity:1" />
    </linearGradient>
    
    <!-- Pattern pentru efectul fragmentat -->
    <pattern id="fragmentPatternCompact" patternUnits="userSpaceOnUse" width="1" height="3">
      <rect width="0.5" height="3" fill="rgba(0,0,0,0.1)"/>
      <rect x="0.5" width="0.5" height="3" fill="rgba(255,255,255,0.1)"/>
    </pattern>
    
    <!-- Shadow filter -->
    <filter id="shadowCompact" x="-50%" y="-50%" width="200%" height="200%">
      <feDropShadow dx="1" dy="2" stdDeviation="1.5" flood-color="rgba(0,0,0,0.3)"/>
    </filter>
  </defs>

  <!-- V - cyan compact -->
  <g transform="translate(8, 10)">
    <!-- Shadow layer -->
    <g transform="translate(1, 1)" opacity="0.3">
      <rect x="0" y="0" width="3" height="2.5" fill="#333333"/>
      <rect x="0" y="3" width="3" height="2.5" fill="#333333"/>
      <rect x="1" y="6" width="2" height="2.5" fill="#333333"/>
      <rect x="1.5" y="9" width="1" height="2.5" fill="#333333"/>
      
      <rect x="8" y="0" width="3" height="2.5" fill="#333333"/>
      <rect x="8" y="3" width="3" height="2.5" fill="#333333"/>
      <rect x="8" y="6" width="2" height="2.5" fill="#333333"/>
      <rect x="7.5" y="9" width="1" height="2.5" fill="#333333"/>
    </g>
    
    <rect x="0" y="0" width="3" height="2.5" fill="url(#cyanGradientCompact)" filter="url(#shadowCompact)"/>
    <rect x="0" y="3" width="3" height="2.5" fill="url(#cyanGradientCompact)"/>
    <rect x="1" y="6" width="2" height="2.5" fill="url(#cyanGradientCompact)"/>
    <rect x="1.5" y="9" width="1" height="2.5" fill="url(#cyanGradientCompact)"/>
    
    <rect x="8" y="0" width="3" height="2.5" fill="url(#cyanGradientCompact)" filter="url(#shadowCompact)"/>
    <rect x="8" y="3" width="3" height="2.5" fill="url(#cyanGradientCompact)"/>
    <rect x="8" y="6" width="2" height="2.5" fill="url(#cyanGradientCompact)"/>
    <rect x="7.5" y="9" width="1" height="2.5" fill="url(#cyanGradientCompact)"/>
    
    <rect x="0" y="0" width="11" height="15" fill="url(#fragmentPatternCompact)" opacity="0.4"/>
  </g>

  <!-- O - verde compact -->
  <g transform="translate(30, 10)">
    <g transform="translate(1, 1)" opacity="0.3">
      <rect x="0" y="0" width="9" height="2.5" fill="#333333"/>
      <rect x="0" y="3" width="2.5" height="9" fill="#333333"/>
      <rect x="6.5" y="3" width="2.5" height="9" fill="#333333"/>
      <rect x="0" y="12.5" width="9" height="2.5" fill="#333333"/>
    </g>
    
    <rect x="0" y="0" width="9" height="2.5" fill="url(#greenGradientCompact)" filter="url(#shadowCompact)"/>
    <rect x="0" y="3" width="2.5" height="9" fill="url(#greenGradientCompact)"/>
    <rect x="6.5" y="3" width="2.5" height="9" fill="url(#greenGradientCompact)"/>
    <rect x="0" y="12.5" width="9" height="2.5" fill="url(#greenGradientCompact)"/>
    
    <rect x="0" y="0" width="9" height="15" fill="url(#fragmentPatternCompact)" opacity="0.4"/>
  </g>

  <!-- N - galben compact -->
  <g transform="translate(52, 10)">
    <g transform="translate(1, 1)" opacity="0.3">
      <rect x="0" y="0" width="2.5" height="15" fill="#333333"/>
      <rect x="3" y="2" width="1.5" height="2.5" fill="#333333"/>
      <rect x="4.5" y="5" width="1.5" height="2.5" fill="#333333"/>
      <rect x="6" y="8" width="1.5" height="2.5" fill="#333333"/>
      <rect x="8" y="0" width="2.5" height="15" fill="#333333"/>
    </g>
    
    <rect x="0" y="0" width="2.5" height="15" fill="url(#yellowGradientCompact)" filter="url(#shadowCompact)"/>
    <rect x="3" y="2" width="1.5" height="2.5" fill="url(#yellowGradientCompact)"/>
    <rect x="4.5" y="5" width="1.5" height="2.5" fill="url(#yellowGradientCompact)"/>
    <rect x="6" y="8" width="1.5" height="2.5" fill="url(#yellowGradientCompact)"/>
    <rect x="8" y="0" width="2.5" height="15" fill="url(#yellowGradientCompact)"/>
    
    <rect x="0" y="0" width="10.5" height="15" fill="url(#fragmentPatternCompact)" opacity="0.4"/>
  </g>

  <!-- E - portocaliu compact -->
  <g transform="translate(75, 10)">
    <g transform="translate(1, 1)" opacity="0.3">
      <rect x="0" y="0" width="9" height="2.5" fill="#333333"/>
      <rect x="0" y="3" width="2.5" height="2.5" fill="#333333"/>
      <rect x="0" y="6.5" width="7" height="2.5" fill="#333333"/>
      <rect x="0" y="10" width="2.5" height="2.5" fill="#333333"/>
      <rect x="0" y="12.5" width="9" height="2.5" fill="#333333"/>
    </g>
    
    <rect x="0" y="0" width="9" height="2.5" fill="url(#orangeGradientCompact)" filter="url(#shadowCompact)"/>
    <rect x="0" y="3" width="2.5" height="2.5" fill="url(#orangeGradientCompact)"/>
    <rect x="0" y="6.5" width="7" height="2.5" fill="url(#orangeGradientCompact)"/>
    <rect x="0" y="10" width="2.5" height="2.5" fill="url(#orangeGradientCompact)"/>
    <rect x="0" y="12.5" width="9" height="2.5" fill="url(#orangeGradientCompact)"/>
    
    <rect x="0" y="0" width="9" height="15" fill="url(#fragmentPatternCompact)" opacity="0.4"/>
  </g>

  <!-- X - multicolor compact -->
  <g transform="translate(97, 10)">
    <g transform="translate(1, 1)" opacity="0.3">
      <rect x="0" y="0" width="2.5" height="2.5" fill="#333333"/>
      <rect x="7" y="0" width="2.5" height="2.5" fill="#333333"/>
      <rect x="1.5" y="3" width="2.5" height="2.5" fill="#333333"/>
      <rect x="5.5" y="3" width="2.5" height="2.5" fill="#333333"/>
      <rect x="3.5" y="6.5" width="3" height="2.5" fill="#333333"/>
      <rect x="1.5" y="10" width="2.5" height="2.5" fill="#333333"/>
      <rect x="5.5" y="10" width="2.5" height="2.5" fill="#333333"/>
      <rect x="0" y="12.5" width="2.5" height="2.5" fill="#333333"/>
      <rect x="7" y="12.5" width="2.5" height="2.5" fill="#333333"/>
    </g>
    
    <rect x="0" y="0" width="2.5" height="2.5" fill="url(#multiColorGradientCompact)" filter="url(#shadowCompact)"/>
    <rect x="7" y="0" width="2.5" height="2.5" fill="url(#multiColorGradientCompact)"/>
    <rect x="1.5" y="3" width="2.5" height="2.5" fill="url(#multiColorGradientCompact)"/>
    <rect x="5.5" y="3" width="2.5" height="2.5" fill="url(#multiColorGradientCompact)"/>
    <rect x="3.5" y="6.5" width="3" height="2.5" fill="url(#multiColorGradientCompact)"/>
    <rect x="1.5" y="10" width="2.5" height="2.5" fill="url(#multiColorGradientCompact)"/>
    <rect x="5.5" y="10" width="2.5" height="2.5" fill="url(#multiColorGradientCompact)"/>
    <rect x="0" y="12.5" width="2.5" height="2.5" fill="url(#multiColorGradientCompact)"/>
    <rect x="7" y="12.5" width="2.5" height="2.5" fill="url(#multiColorGradientCompact)"/>
    
    <rect x="0" y="0" width="9.5" height="15" fill="url(#fragmentPatternCompact)" opacity="0.4"/>
  </g>

  <!-- Efecte de fundal fragmentate -->
  <g opacity="0.2">
    <rect x="25" y="8" width="1" height="4" fill="#666666"/>
    <rect x="48" y="12" width="1.5" height="6" fill="#666666"/>
    <rect x="72" y="6" width="1" height="3" fill="#666666"/>
    <rect x="94" y="14" width="1.5" height="5" fill="#666666"/>
  </g>
</svg>