<svg width="300" height="80" viewBox="0 0 300 80" xmlns="http://www.w3.org/2000/svg">
  <defs>
    <!-- Gradient pentru efectul retro -->
    <linearGradient id="retroGradient" x1="0%" y1="0%" x2="100%" y2="0%">
      <stop offset="0%" style="stop-color:#ff6b35;stop-opacity:1" />
      <stop offset="20%" style="stop-color:#f7931e;stop-opacity:1" />
      <stop offset="40%" style="stop-color:#ffd23f;stop-opacity:1" />
      <stop offset="60%" style="stop-color:#8bc34a;stop-opacity:1" />
      <stop offset="80%" style="stop-color:#4caf50;stop-opacity:1" />
      <stop offset="100%" style="stop-color:#2196f3;stop-opacity:1" />
    </linearGradient>
  </defs>
  
  <!-- V -->
  <g>
    <!-- Linii orizontale V -->
    <rect x="10" y="20" width="12" height="3" fill="url(#retroGradient)" opacity="0.9"/>
    <rect x="10" y="25" width="12" height="3" fill="url(#retroGradient)" opacity="0.8"/>
    <rect x="12" y="30" width="10" height="3" fill="url(#retroGradient)" opacity="0.9"/>
    <rect x="14" y="35" width="8" height="3" fill="url(#retroGradient)" opacity="0.8"/>
    <rect x="16" y="40" width="6" height="3" fill="url(#retroGradient)" opacity="0.9"/>
    <rect x="18" y="45" width="4" height="3" fill="url(#retroGradient)" opacity="0.8"/>
    <rect x="19" y="50" width="2" height="3" fill="url(#retroGradient)" opacity="0.9"/>
    
    <rect x="38" y="20" width="12" height="3" fill="url(#retroGradient)" opacity="0.9"/>
    <rect x="38" y="25" width="12" height="3" fill="url(#retroGradient)" opacity="0.8"/>
    <rect x="38" y="30" width="10" height="3" fill="url(#retroGradient)" opacity="0.9"/>
    <rect x="36" y="35" width="8" height="3" fill="url(#retroGradient)" opacity="0.8"/>
    <rect x="34" y="40" width="6" height="3" fill="url(#retroGradient)" opacity="0.9"/>
    <rect x="32" y="45" width="4" height="3" fill="url(#retroGradient)" opacity="0.8"/>
    <rect x="31" y="50" width="2" height="3" fill="url(#retroGradient)" opacity="0.9"/>
  </g>

  <!-- O -->
  <g>
    <rect x="70" y="20" width="20" height="3" fill="url(#retroGradient)" opacity="0.9"/>
    <rect x="68" y="25" width="3" height="3" fill="url(#retroGradient)" opacity="0.8"/>
    <rect x="87" y="25" width="3" height="3" fill="url(#retroGradient)" opacity="0.8"/>
    <rect x="68" y="30" width="3" height="3" fill="url(#retroGradient)" opacity="0.9"/>
    <rect x="87" y="30" width="3" height="3" fill="url(#retroGradient)" opacity="0.9"/>
    <rect x="68" y="35" width="3" height="3" fill="url(#retroGradient)" opacity="0.8"/>
    <rect x="87" y="35" width="3" height="3" fill="url(#retroGradient)" opacity="0.8"/>
    <rect x="68" y="40" width="3" height="3" fill="url(#retroGradient)" opacity="0.9"/>
    <rect x="87" y="40" width="3" height="3" fill="url(#retroGradient)" opacity="0.9"/>
    <rect x="68" y="45" width="3" height="3" fill="url(#retroGradient)" opacity="0.8"/>
    <rect x="87" y="45" width="3" height="3" fill="url(#retroGradient)" opacity="0.8"/>
    <rect x="70" y="50" width="20" height="3" fill="url(#retroGradient)" opacity="0.9"/>
  </g>

  <!-- N -->
  <g>
    <rect x="110" y="20" width="3" height="33" fill="url(#retroGradient)" opacity="0.9"/>
    <rect x="115" y="25" width="3" height="3" fill="url(#retroGradient)" opacity="0.8"/>
    <rect x="118" y="30" width="3" height="3" fill="url(#retroGradient)" opacity="0.9"/>
    <rect x="121" y="35" width="3" height="3" fill="url(#retroGradient)" opacity="0.8"/>
    <rect x="124" y="40" width="3" height="3" fill="url(#retroGradient)" opacity="0.9"/>
    <rect x="127" y="45" width="3" height="3" fill="url(#retroGradient)" opacity="0.8"/>
    <rect x="130" y="20" width="3" height="33" fill="url(#retroGradient)" opacity="0.9"/>
  </g>

  <!-- E -->
  <g>
    <rect x="150" y="20" width="20" height="3" fill="url(#retroGradient)" opacity="0.9"/>
    <rect x="150" y="25" width="3" height="3" fill="url(#retroGradient)" opacity="0.8"/>
    <rect x="150" y="30" width="3" height="3" fill="url(#retroGradient)" opacity="0.9"/>
    <rect x="150" y="35" width="15" height="3" fill="url(#retroGradient)" opacity="0.8"/>
    <rect x="150" y="40" width="3" height="3" fill="url(#retroGradient)" opacity="0.9"/>
    <rect x="150" y="45" width="3" height="3" fill="url(#retroGradient)" opacity="0.8"/>
    <rect x="150" y="50" width="20" height="3" fill="url(#retroGradient)" opacity="0.9"/>
  </g>

  <!-- X -->
  <g>
    <rect x="190" y="20" width="3" height="3" fill="url(#retroGradient)" opacity="0.9"/>
    <rect x="207" y="20" width="3" height="3" fill="url(#retroGradient)" opacity="0.9"/>
    <rect x="193" y="25" width="3" height="3" fill="url(#retroGradient)" opacity="0.8"/>
    <rect x="204" y="25" width="3" height="3" fill="url(#retroGradient)" opacity="0.8"/>
    <rect x="196" y="30" width="3" height="3" fill="url(#retroGradient)" opacity="0.9"/>
    <rect x="201" y="30" width="3" height="3" fill="url(#retroGradient)" opacity="0.9"/>
    <rect x="199" y="35" width="2" height="3" fill="url(#retroGradient)" opacity="0.8"/>
    <rect x="196" y="40" width="3" height="3" fill="url(#retroGradient)" opacity="0.9"/>
    <rect x="201" y="40" width="3" height="3" fill="url(#retroGradient)" opacity="0.9"/>
    <rect x="193" y="45" width="3" height="3" fill="url(#retroGradient)" opacity="0.8"/>
    <rect x="204" y="45" width="3" height="3" fill="url(#retroGradient)" opacity="0.8"/>
    <rect x="190" y="50" width="3" height="3" fill="url(#retroGradient)" opacity="0.9"/>
    <rect x="207" y="50" width="3" height="3" fill="url(#retroGradient)" opacity="0.9"/>
  </g>

  <!-- Efect de scanline peste tot -->
  <defs>
    <pattern id="scanlines" patternUnits="userSpaceOnUse" width="1" height="4">
      <rect width="1" height="1" fill="rgba(0,0,0,0.1)"/>
      <rect y="1" width="1" height="3" fill="rgba(0,0,0,0)"/>
    </pattern>
  </defs>
  <rect x="0" y="0" width="300" height="80" fill="url(#scanlines)" opacity="0.3"/>
</svg>