<svg width="160" height="48" viewBox="0 0 160 48" xmlns="http://www.w3.org/2000/svg">
  <defs>
    <!-- Gradient cu culori mai intense pentru glitch -->
    <linearGradient id="glitchGradientCompact" x1="0%" y1="0%" x2="100%" y2="0%">
      <stop offset="0%" style="stop-color:#ff3333;stop-opacity:1" />
      <stop offset="20%" style="stop-color:#ff6633;stop-opacity:1" />
      <stop offset="40%" style="stop-color:#ffaa33;stop-opacity:1" />
      <stop offset="60%" style="stop-color:#88ff33;stop-opacity:1" />
      <stop offset="80%" style="stop-color:#33ff88;stop-opacity:1" />
      <stop offset="100%" style="stop-color:#3388ff;stop-opacity:1" />
    </linearGradient>
    
    <!-- Glitch effects -->
    <linearGradient id="redGlitch" x1="0%" y1="0%" x2="100%" y2="0%">
      <stop offset="0%" style="stop-color:#ff0000;stop-opacity:0.7" />
      <stop offset="100%" style="stop-color:#ff4444;stop-opacity:0.5" />
    </linearGradient>
    
    <linearGradient id="greenGlitch" x1="0%" y1="0%" x2="100%" y2="0%">
      <stop offset="0%" style="stop-color:#00ff00;stop-opacity:0.6" />
      <stop offset="100%" style="stop-color:#44ff44;stop-opacity:0.4" />
    </linearGradient>
    
    <linearGradient id="blueGlitch" x1="0%" y1="0%" x2="100%" y2="0%">
      <stop offset="0%" style="stop-color:#0066ff;stop-opacity:0.5" />
      <stop offset="100%" style="stop-color:#3388ff;stop-opacity:0.3" />
    </linearGradient>
  </defs>

  <!-- V - compact și gros -->
  <g transform="translate(8, 10)">
    <rect x="0" y="0" width="3" height="2.5" fill="url(#glitchGradientCompact)" opacity="0.95"/>
    <rect x="0" y="3" width="3" height="2.5" fill="url(#glitchGradientCompact)" opacity="0.9"/>
    <rect x="1" y="6" width="2" height="2.5" fill="url(#glitchGradientCompact)" opacity="0.95"/>
    <rect x="1.5" y="9" width="1" height="2.5" fill="url(#glitchGradientCompact)" opacity="0.9"/>
    <rect x="1.5" y="12" width="1" height="2.5" fill="url(#glitchGradientCompact)" opacity="0.95"/>
    
    <rect x="9" y="0" width="3" height="2.5" fill="url(#glitchGradientCompact)" opacity="0.95"/>
    <rect x="9" y="3" width="3" height="2.5" fill="url(#glitchGradientCompact)" opacity="0.9"/>
    <rect x="10" y="6" width="2" height="2.5" fill="url(#glitchGradientCompact)" opacity="0.95"/>
    <rect x="10.5" y="9" width="1" height="2.5" fill="url(#glitchGradientCompact)" opacity="0.9"/>
    <rect x="10.5" y="12" width="1" height="2.5" fill="url(#glitchGradientCompact)" opacity="0.95"/>
    
    <!-- Glitch pentru V -->
    <rect x="0.5" y="1" width="2" height="1.5" fill="url(#redGlitch)" opacity="0.6"/>
    <rect x="9.5" y="7" width="1.5" height="1.5" fill="url(#greenGlitch)" opacity="0.5"/>
  </g>

  <!-- O - compact și gros -->
  <g transform="translate(32, 10)">
    <rect x="0" y="0" width="9" height="2.5" fill="url(#glitchGradientCompact)" opacity="0.95"/>
    <rect x="0" y="3" width="2.5" height="2.5" fill="url(#glitchGradientCompact)" opacity="0.9"/>
    <rect x="6.5" y="3" width="2.5" height="2.5" fill="url(#glitchGradientCompact)" opacity="0.9"/>
    <rect x="0" y="6" width="2.5" height="2.5" fill="url(#glitchGradientCompact)" opacity="0.95"/>
    <rect x="6.5" y="6" width="2.5" height="2.5" fill="url(#glitchGradientCompact)" opacity="0.95"/>
    <rect x="0" y="9" width="2.5" height="2.5" fill="url(#glitchGradientCompact)" opacity="0.9"/>
    <rect x="6.5" y="9" width="2.5" height="2.5" fill="url(#glitchGradientCompact)" opacity="0.9"/>
    <rect x="0" y="12" width="2.5" height="2.5" fill="url(#glitchGradientCompact)" opacity="0.95"/>
    <rect x="6.5" y="12" width="2.5" height="2.5" fill="url(#glitchGradientCompact)" opacity="0.95"/>
    <rect x="0" y="15" width="9" height="2.5" fill="url(#glitchGradientCompact)" opacity="0.9"/>
    
    <!-- Glitch pentru O -->
    <rect x="1" y="4" width="1.5" height="1.5" fill="url(#blueGlitch)" opacity="0.5"/>
    <rect x="7" y="10" width="1.5" height="1.5" fill="url(#redGlitch)" opacity="0.6"/>
  </g>

  <!-- N - compact și gros -->
  <g transform="translate(52, 10)">
    <rect x="0" y="0" width="2.5" height="18" fill="url(#glitchGradientCompact)" opacity="0.95"/>
    <rect x="3" y="3" width="1.5" height="2.5" fill="url(#glitchGradientCompact)" opacity="0.9"/>
    <rect x="4.5" y="6" width="1.5" height="2.5" fill="url(#glitchGradientCompact)" opacity="0.95"/>
    <rect x="6" y="9" width="1.5" height="2.5" fill="url(#glitchGradientCompact)" opacity="0.9"/>
    <rect x="7.5" y="12" width="1.5" height="2.5" fill="url(#glitchGradientCompact)" opacity="0.95"/>
    <rect x="9" y="0" width="2.5" height="18" fill="url(#glitchGradientCompact)" opacity="0.9"/>
    
    <!-- Glitch pentru N -->
    <rect x="0.5" y="5" width="1.5" height="3" fill="url(#greenGlitch)" opacity="0.5"/>
    <rect x="9.5" y="8" width="1.5" height="2.5" fill="url(#blueGlitch)" opacity="0.4"/>
  </g>

  <!-- E - compact și gros -->
  <g transform="translate(72, 10)">
    <rect x="0" y="0" width="9" height="2.5" fill="url(#glitchGradientCompact)" opacity="0.95"/>
    <rect x="0" y="3" width="2.5" height="2.5" fill="url(#glitchGradientCompact)" opacity="0.9"/>
    <rect x="0" y="6" width="2.5" height="2.5" fill="url(#glitchGradientCompact)" opacity="0.95"/>
    <rect x="0" y="8" width="7" height="2.5" fill="url(#glitchGradientCompact)" opacity="0.9"/>
    <rect x="0" y="11" width="2.5" height="2.5" fill="url(#glitchGradientCompact)" opacity="0.95"/>
    <rect x="0" y="14" width="2.5" height="2.5" fill="url(#glitchGradientCompact)" opacity="0.9"/>
    <rect x="0" y="15" width="9" height="2.5" fill="url(#glitchGradientCompact)" opacity="0.95"/>
    
    <!-- Glitch pentru E -->
    <rect x="1" y="1" width="3" height="1.5" fill="url(#redGlitch)" opacity="0.6"/>
    <rect x="0.5" y="15.5" width="4" height="1.5" fill="url(#greenGlitch)" opacity="0.5"/>
  </g>

  <!-- X - compact și gros -->
  <g transform="translate(92, 10)">
    <rect x="0" y="0" width="2.5" height="2.5" fill="url(#glitchGradientCompact)" opacity="0.95"/>
    <rect x="7" y="0" width="2.5" height="2.5" fill="url(#glitchGradientCompact)" opacity="0.95"/>
    <rect x="1.5" y="3" width="2.5" height="2.5" fill="url(#glitchGradientCompact)" opacity="0.9"/>
    <rect x="5.5" y="3" width="2.5" height="2.5" fill="url(#glitchGradientCompact)" opacity="0.9"/>
    <rect x="3" y="6" width="2.5" height="2.5" fill="url(#glitchGradientCompact)" opacity="0.95"/>
    <rect x="3.5" y="8" width="1.5" height="2.5" fill="url(#glitchGradientCompact)" opacity="0.9"/>
    <rect x="3" y="10" width="2.5" height="2.5" fill="url(#glitchGradientCompact)" opacity="0.95"/>
    <rect x="1.5" y="13" width="2.5" height="2.5" fill="url(#glitchGradientCompact)" opacity="0.9"/>
    <rect x="5.5" y="13" width="2.5" height="2.5" fill="url(#glitchGradientCompact)" opacity="0.9"/>
    <rect x="0" y="15" width="2.5" height="2.5" fill="url(#glitchGradientCompact)" opacity="0.95"/>
    <rect x="7" y="15" width="2.5" height="2.5" fill="url(#glitchGradientCompact)" opacity="0.95"/>
    
    <!-- Glitch puternic pentru X -->
    <rect x="1" y="1" width="1.5" height="3" fill="url(#redGlitch)" opacity="0.7"/>
    <rect x="6" y="13.5" width="2.5" height="2.5" fill="url(#greenGlitch)" opacity="0.6"/>
    <rect x="3.5" y="7" width="3" height="1.5" fill="url(#blueGlitch)" opacity="0.5"/>
  </g>

  <!-- Efecte de glitch random -->
  <g opacity="0.4">
    <rect x="18" y="12" width="1" height="6" fill="#ff0000"/>
    <rect x="50" y="18" width="3" height="1" fill="#00ff00"/>
    <rect x="78" y="14" width="1.5" height="3" fill="#0088ff"/>
    <rect x="106" y="22" width="2.5" height="1" fill="#ffff00"/>
  </g>
  
  <!-- Scanlines subtile -->
  <defs>
    <pattern id="scanlinesCompact" patternUnits="userSpaceOnUse" width="1" height="2">
      <rect width="1" height="1" fill="rgba(255,255,255,0.1)"/>
      <rect y="1" width="1" height="1" fill="rgba(0,0,0,0)"/>
    </pattern>
  </defs>
  <rect x="0" y="0" width="160" height="48" fill="url(#scanlinesCompact)" opacity="0.3"/>
</svg>