<svg width="192" height="192" viewBox="0 0 192 192" xmlns="http://www.w3.org/2000/svg">
  <defs>
    <!-- Background gradient -->
    <radialGradient id="bgGradient" cx="50%" cy="30%" r="80%">
      <stop offset="0%" style="stop-color:#1a1a2e;stop-opacity:1" />
      <stop offset="50%" style="stop-color:#16213e;stop-opacity:1" />
      <stop offset="100%" style="stop-color:#0f172a;stop-opacity:1" />
    </radialGradient>
    
    <!-- Retro gradient pentru text -->
    <linearGradient id="retroGradient3" x1="0%" y1="0%" x2="100%" y2="0%">
      <stop offset="0%" style="stop-color:#ff6b35;stop-opacity:1" />
      <stop offset="20%" style="stop-color:#f7931e;stop-opacity:1" />
      <stop offset="40%" style="stop-color:#ffd23f;stop-opacity:1" />
      <stop offset="60%" style="stop-color:#8bc34a;stop-opacity:1" />
      <stop offset="80%" style="stop-color:#4caf50;stop-opacity:1" />
      <stop offset="100%" style="stop-color:#2196f3;stop-opacity:1" />
    </linearGradient>
    
    <!-- Scanlines pattern -->
    <pattern id="scanlines3" patternUnits="userSpaceOnUse" width="2" height="4">
      <rect width="2" height="2" fill="rgba(0,0,0,0.2)"/>
      <rect y="2" width="2" height="2" fill="rgba(0,0,0,0)"/>
    </pattern>
    
    <!-- Glow filter -->
    <filter id="glow" x="-50%" y="-50%" width="200%" height="200%">
      <feGaussianBlur stdDeviation="4" result="coloredBlur"/>
      <feMerge> 
        <feMergeNode in="coloredBlur"/>
        <feMergeNode in="SourceGraphic"/>
      </feMerge>
    </filter>
  </defs>
  
  <!-- Background -->
  <rect width="192" height="192" fill="url(#bgGradient)" rx="24"/>
  
  <!-- Outer glow -->
  <rect x="20" y="20" width="152" height="152" fill="url(#retroGradient3)" opacity="0.15" rx="12"/>
  
  <!-- Main VONEX logo centrat -->
  <g transform="translate(36, 70)">
    <!-- V -->
    <g>
      <rect x="0" y="0" width="8" height="3" fill="url(#retroGradient3)" opacity="0.95"/>
      <rect x="0" y="4" width="8" height="3" fill="url(#retroGradient3)" opacity="0.85"/>
      <rect x="1" y="8" width="6" height="3" fill="url(#retroGradient3)" opacity="0.95"/>
      <rect x="2" y="12" width="4" height="3" fill="url(#retroGradient3)" opacity="0.85"/>
      <rect x="3" y="16" width="2" height="3" fill="url(#retroGradient3)" opacity="0.95"/>
      
      <rect x="16" y="0" width="8" height="3" fill="url(#retroGradient3)" opacity="0.95"/>
      <rect x="16" y="4" width="8" height="3" fill="url(#retroGradient3)" opacity="0.85"/>
      <rect x="17" y="8" width="6" height="3" fill="url(#retroGradient3)" opacity="0.95"/>
      <rect x="18" y="12" width="4" height="3" fill="url(#retroGradient3)" opacity="0.85"/>
      <rect x="19" y="16" width="2" height="3" fill="url(#retroGradient3)" opacity="0.95"/>
    </g>

    <!-- O -->
    <g transform="translate(30, 0)">
      <rect x="0" y="0" width="12" height="3" fill="url(#retroGradient3)" opacity="0.95"/>
      <rect x="0" y="4" width="3" height="3" fill="url(#retroGradient3)" opacity="0.85"/>
      <rect x="9" y="4" width="3" height="3" fill="url(#retroGradient3)" opacity="0.85"/>
      <rect x="0" y="8" width="3" height="3" fill="url(#retroGradient3)" opacity="0.95"/>
      <rect x="9" y="8" width="3" height="3" fill="url(#retroGradient3)" opacity="0.95"/>
      <rect x="0" y="12" width="3" height="3" fill="url(#retroGradient3)" opacity="0.85"/>
      <rect x="9" y="12" width="3" height="3" fill="url(#retroGradient3)" opacity="0.85"/>
      <rect x="0" y="16" width="12" height="3" fill="url(#retroGradient3)" opacity="0.95"/>
    </g>

    <!-- N -->
    <g transform="translate(48, 0)">
      <rect x="0" y="0" width="3" height="19" fill="url(#retroGradient3)" opacity="0.95"/>
      <rect x="4" y="4" width="2" height="3" fill="url(#retroGradient3)" opacity="0.85"/>
      <rect x="6" y="8" width="2" height="3" fill="url(#retroGradient3)" opacity="0.95"/>
      <rect x="8" y="12" width="2" height="3" fill="url(#retroGradient3)" opacity="0.85"/>
      <rect x="10" y="0" width="3" height="19" fill="url(#retroGradient3)" opacity="0.95"/>
    </g>

    <!-- E -->
    <g transform="translate(63, 0)">
      <rect x="0" y="0" width="12" height="3" fill="url(#retroGradient3)" opacity="0.95"/>
      <rect x="0" y="4" width="3" height="3" fill="url(#retroGradient3)" opacity="0.85"/>
      <rect x="0" y="8" width="9" height="3" fill="url(#retroGradient3)" opacity="0.95"/>
      <rect x="0" y="12" width="3" height="3" fill="url(#retroGradient3)" opacity="0.85"/>
      <rect x="0" y="16" width="12" height="3" fill="url(#retroGradient3)" opacity="0.95"/>
    </g>

    <!-- X -->
    <g transform="translate(81, 0)">
      <rect x="0" y="0" width="3" height="3" fill="url(#retroGradient3)" opacity="0.95"/>
      <rect x="9" y="0" width="3" height="3" fill="url(#retroGradient3)" opacity="0.95"/>
      <rect x="2" y="4" width="3" height="3" fill="url(#retroGradient3)" opacity="0.85"/>
      <rect x="7" y="4" width="3" height="3" fill="url(#retroGradient3)" opacity="0.85"/>
      <rect x="4" y="8" width="4" height="3" fill="url(#retroGradient3)" opacity="0.95"/>
      <rect x="2" y="12" width="3" height="3" fill="url(#retroGradient3)" opacity="0.85"/>
      <rect x="7" y="12" width="3" height="3" fill="url(#retroGradient3)" opacity="0.85"/>
      <rect x="0" y="16" width="3" height="3" fill="url(#retroGradient3)" opacity="0.95"/>
      <rect x="9" y="16" width="3" height="3" fill="url(#retroGradient3)" opacity="0.95"/>
    </g>
  </g>
  
  <!-- Scanlines effect peste tot -->
  <rect x="0" y="0" width="192" height="192" fill="url(#scanlines3)" opacity="0.3" rx="24"/>
  
  <!-- Outer glow effect -->
  <rect x="0" y="0" width="192" height="192" fill="none" stroke="url(#retroGradient3)" stroke-width="2" opacity="0.4" rx="24" filter="url(#glow)"/>
</svg>