<svg width="512" height="512" viewBox="0 0 512 512" xmlns="http://www.w3.org/2000/svg">
  <defs>
    <radialGradient id="bgGradient512" cx="50%" cy="30%" r="80%">
      <stop offset="0%" style="stop-color:#1a1a2e;stop-opacity:1" />
      <stop offset="50%" style="stop-color:#16213e;stop-opacity:1" />
      <stop offset="100%" style="stop-color:#0f172a;stop-opacity:1" />
    </radialGradient>
    
    <linearGradient id="retroGradient512" x1="0%" y1="0%" x2="100%" y2="0%">
      <stop offset="0%" style="stop-color:#ff6b35;stop-opacity:1" />
      <stop offset="20%" style="stop-color:#f7931e;stop-opacity:1" />
      <stop offset="40%" style="stop-color:#ffd23f;stop-opacity:1" />
      <stop offset="60%" style="stop-color:#8bc34a;stop-opacity:1" />
      <stop offset="80%" style="stop-color:#4caf50;stop-opacity:1" />
      <stop offset="100%" style="stop-color:#2196f3;stop-opacity:1" />
    </linearGradient>
    
    <pattern id="scanlines512" patternUnits="userSpaceOnUse" width="4" height="8">
      <rect width="4" height="4" fill="rgba(0,0,0,0.2)"/>
      <rect y="4" width="4" height="4" fill="rgba(0,0,0,0)"/>
    </pattern>
    
    <filter id="glow512" x="-50%" y="-50%" width="200%" height="200%">
      <feGaussianBlur stdDeviation="8" result="coloredBlur"/>
      <feMerge> 
        <feMergeNode in="coloredBlur"/>
        <feMergeNode in="SourceGraphic"/>
      </feMerge>
    </filter>
  </defs>
  
  <rect width="512" height="512" fill="url(#bgGradient512)" rx="64"/>
  <rect x="50" y="50" width="412" height="412" fill="url(#retroGradient512)" opacity="0.15" rx="32"/>
  
  <!-- VONEX logo scalat pentru 512x512 -->
  <g transform="translate(96, 188) scale(2.67, 2.67)">
    <!-- V -->
    <g>
      <rect x="0" y="0" width="8" height="3" fill="url(#retroGradient512)" opacity="0.95"/>
      <rect x="0" y="4" width="8" height="3" fill="url(#retroGradient512)" opacity="0.85"/>
      <rect x="1" y="8" width="6" height="3" fill="url(#retroGradient512)" opacity="0.95"/>
      <rect x="2" y="12" width="4" height="3" fill="url(#retroGradient512)" opacity="0.85"/>
      <rect x="3" y="16" width="2" height="3" fill="url(#retroGradient512)" opacity="0.95"/>
      
      <rect x="16" y="0" width="8" height="3" fill="url(#retroGradient512)" opacity="0.95"/>
      <rect x="16" y="4" width="8" height="3" fill="url(#retroGradient512)" opacity="0.85"/>
      <rect x="17" y="8" width="6" height="3" fill="url(#retroGradient512)" opacity="0.95"/>
      <rect x="18" y="12" width="4" height="3" fill="url(#retroGradient512)" opacity="0.85"/>
      <rect x="19" y="16" width="2" height="3" fill="url(#retroGradient512)" opacity="0.95"/>
    </g>

    <!-- O -->
    <g transform="translate(30, 0)">
      <rect x="0" y="0" width="12" height="3" fill="url(#retroGradient512)" opacity="0.95"/>
      <rect x="0" y="4" width="3" height="3" fill="url(#retroGradient512)" opacity="0.85"/>
      <rect x="9" y="4" width="3" height="3" fill="url(#retroGradient512)" opacity="0.85"/>
      <rect x="0" y="8" width="3" height="3" fill="url(#retroGradient512)" opacity="0.95"/>
      <rect x="9" y="8" width="3" height="3" fill="url(#retroGradient512)" opacity="0.95"/>
      <rect x="0" y="12" width="3" height="3" fill="url(#retroGradient512)" opacity="0.85"/>
      <rect x="9" y="12" width="3" height="3" fill="url(#retroGradient512)" opacity="0.85"/>
      <rect x="0" y="16" width="12" height="3" fill="url(#retroGradient512)" opacity="0.95"/>
    </g>

    <!-- N -->
    <g transform="translate(48, 0)">
      <rect x="0" y="0" width="3" height="19" fill="url(#retroGradient512)" opacity="0.95"/>
      <rect x="4" y="4" width="2" height="3" fill="url(#retroGradient512)" opacity="0.85"/>
      <rect x="6" y="8" width="2" height="3" fill="url(#retroGradient512)" opacity="0.95"/>
      <rect x="8" y="12" width="2" height="3" fill="url(#retroGradient512)" opacity="0.85"/>
      <rect x="10" y="0" width="3" height="19" fill="url(#retroGradient512)" opacity="0.95"/>
    </g>

    <!-- E -->
    <g transform="translate(63, 0)">
      <rect x="0" y="0" width="12" height="3" fill="url(#retroGradient512)" opacity="0.95"/>
      <rect x="0" y="4" width="3" height="3" fill="url(#retroGradient512)" opacity="0.85"/>
      <rect x="0" y="8" width="9" height="3" fill="url(#retroGradient512)" opacity="0.95"/>
      <rect x="0" y="12" width="3" height="3" fill="url(#retroGradient512)" opacity="0.85"/>
      <rect x="0" y="16" width="12" height="3" fill="url(#retroGradient512)" opacity="0.95"/>
    </g>

    <!-- X -->
    <g transform="translate(81, 0)">
      <rect x="0" y="0" width="3" height="3" fill="url(#retroGradient512)" opacity="0.95"/>
      <rect x="9" y="0" width="3" height="3" fill="url(#retroGradient512)" opacity="0.95"/>
      <rect x="2" y="4" width="3" height="3" fill="url(#retroGradient512)" opacity="0.85"/>
      <rect x="7" y="4" width="3" height="3" fill="url(#retroGradient512)" opacity="0.85"/>
      <rect x="4" y="8" width="4" height="3" fill="url(#retroGradient512)" opacity="0.95"/>
      <rect x="2" y="12" width="3" height="3" fill="url(#retroGradient512)" opacity="0.85"/>
      <rect x="7" y="12" width="3" height="3" fill="url(#retroGradient512)" opacity="0.85"/>
      <rect x="0" y="16" width="3" height="3" fill="url(#retroGradient512)" opacity="0.95"/>
      <rect x="9" y="16" width="3" height="3" fill="url(#retroGradient512)" opacity="0.95"/>
    </g>
  </g>
  
  <rect x="0" y="0" width="512" height="512" fill="url(#scanlines512)" opacity="0.3" rx="64"/>
  <rect x="0" y="0" width="512" height="512" fill="none" stroke="url(#retroGradient512)" stroke-width="4" opacity="0.4" rx="64" filter="url(#glow512)"/>
</svg>