<svg width="200" height="60" viewBox="0 0 200 60" xmlns="http://www.w3.org/2000/svg">
  <defs>
    <!-- Gradient cu culori mai intense pentru glitch -->
    <linearGradient id="glitchGradientCompact" x1="0%" y1="0%" x2="100%" y2="0%">
      <stop offset="0%" style="stop-color:#ff3333;stop-opacity:1" />
      <stop offset="20%" style="stop-color:#ff6633;stop-opacity:1" />
      <stop offset="40%" style="stop-color:#ffaa33;stop-opacity:1" />
      <stop offset="60%" style="stop-color:#88ff33;stop-opacity:1" />
      <stop offset="80%" style="stop-color:#33ff88;stop-opacity:1" />
      <stop offset="100%" style="stop-color:#3388ff;stop-opacity:1" />
    </linearGradient>
    
    <!-- Glitch effects -->
    <linearGradient id="redGlitch" x1="0%" y1="0%" x2="100%" y2="0%">
      <stop offset="0%" style="stop-color:#ff0000;stop-opacity:0.7" />
      <stop offset="100%" style="stop-color:#ff4444;stop-opacity:0.5" />
    </linearGradient>
    
    <linearGradient id="greenGlitch" x1="0%" y1="0%" x2="100%" y2="0%">
      <stop offset="0%" style="stop-color:#00ff00;stop-opacity:0.6" />
      <stop offset="100%" style="stop-color:#44ff44;stop-opacity:0.4" />
    </linearGradient>
    
    <linearGradient id="blueGlitch" x1="0%" y1="0%" x2="100%" y2="0%">
      <stop offset="0%" style="stop-color:#0066ff;stop-opacity:0.5" />
      <stop offset="100%" style="stop-color:#3388ff;stop-opacity:0.3" />
    </linearGradient>
  </defs>

  <!-- V - MULT MAI GROS pentru claritate maximă -->
  <g transform="translate(10, 12)">
    <rect x="0" y="0" width="6" height="4" fill="url(#glitchGradientCompact)" opacity="0.95"/>
    <rect x="0" y="5" width="6" height="4" fill="url(#glitchGradientCompact)" opacity="0.9"/>
    <rect x="1" y="10" width="5" height="4" fill="url(#glitchGradientCompact)" opacity="0.95"/>
    <rect x="2" y="15" width="4" height="4" fill="url(#glitchGradientCompact)" opacity="0.9"/>
    <rect x="3" y="20" width="3" height="4" fill="url(#glitchGradientCompact)" opacity="0.95"/>
    <rect x="3.5" y="25" width="2" height="4" fill="url(#glitchGradientCompact)" opacity="0.9"/>
    
    <rect x="15" y="0" width="6" height="4" fill="url(#glitchGradientCompact)" opacity="0.95"/>
    <rect x="15" y="5" width="6" height="4" fill="url(#glitchGradientCompact)" opacity="0.9"/>
    <rect x="15" y="10" width="5" height="4" fill="url(#glitchGradientCompact)" opacity="0.95"/>
    <rect x="14" y="15" width="4" height="4" fill="url(#glitchGradientCompact)" opacity="0.9"/>
    <rect x="13" y="20" width="3" height="4" fill="url(#glitchGradientCompact)" opacity="0.95"/>
    <rect x="12.5" y="25" width="2" height="4" fill="url(#glitchGradientCompact)" opacity="0.9"/>
    
    <!-- Glitch pentru V -->
    <rect x="1" y="2" width="4" height="3" fill="url(#redGlitch)" opacity="0.6"/>
    <rect x="16" y="12" width="3" height="3" fill="url(#greenGlitch)" opacity="0.5"/>
  </g>

  <!-- O - MULT MAI GROS -->
  <g transform="translate(48, 12)">
    <rect x="0" y="0" width="15" height="4" fill="url(#glitchGradientCompact)" opacity="0.95"/>
    <rect x="0" y="5" width="4" height="4" fill="url(#glitchGradientCompact)" opacity="0.9"/>
    <rect x="11" y="5" width="4" height="4" fill="url(#glitchGradientCompact)" opacity="0.9"/>
    <rect x="0" y="10" width="4" height="4" fill="url(#glitchGradientCompact)" opacity="0.95"/>
    <rect x="11" y="10" width="4" height="4" fill="url(#glitchGradientCompact)" opacity="0.95"/>
    <rect x="0" y="15" width="4" height="4" fill="url(#glitchGradientCompact)" opacity="0.9"/>
    <rect x="11" y="15" width="4" height="4" fill="url(#glitchGradientCompact)" opacity="0.9"/>
    <rect x="0" y="20" width="4" height="4" fill="url(#glitchGradientCompact)" opacity="0.95"/>
    <rect x="11" y="20" width="4" height="4" fill="url(#glitchGradientCompact)" opacity="0.95"/>
    <rect x="0" y="25" width="15" height="4" fill="url(#glitchGradientCompact)" opacity="0.9"/>
    
    <!-- Glitch pentru O -->
    <rect x="2" y="7" width="3" height="3" fill="url(#blueGlitch)" opacity="0.5"/>
    <rect x="12" y="17" width="3" height="3" fill="url(#redGlitch)" opacity="0.6"/>
  </g>

  <!-- N - MULT MAI GROS -->
  <g transform="translate(75, 12)">
    <rect x="0" y="0" width="4" height="29" fill="url(#glitchGradientCompact)" opacity="0.95"/>
    <rect x="5" y="5" width="3" height="4" fill="url(#glitchGradientCompact)" opacity="0.9"/>
    <rect x="8" y="10" width="3" height="4" fill="url(#glitchGradientCompact)" opacity="0.95"/>
    <rect x="11" y="15" width="3" height="4" fill="url(#glitchGradientCompact)" opacity="0.9"/>
    <rect x="14" y="20" width="3" height="4" fill="url(#glitchGradientCompact)" opacity="0.95"/>
    <rect x="17" y="0" width="4" height="29" fill="url(#glitchGradientCompact)" opacity="0.9"/>
    
    <!-- Glitch pentru N -->
    <rect x="1" y="8" width="2" height="5" fill="url(#greenGlitch)" opacity="0.5"/>
    <rect x="18" y="12" width="2" height="4" fill="url(#blueGlitch)" opacity="0.4"/>
  </g>

  <!-- E - MULT MAI GROS -->
  <g transform="translate(105, 12)">
    <rect x="0" y="0" width="15" height="4" fill="url(#glitchGradientCompact)" opacity="0.95"/>
    <rect x="0" y="5" width="4" height="4" fill="url(#glitchGradientCompact)" opacity="0.9"/>
    <rect x="0" y="10" width="4" height="4" fill="url(#glitchGradientCompact)" opacity="0.95"/>
    <rect x="0" y="12" width="12" height="4" fill="url(#glitchGradientCompact)" opacity="0.9"/>
    <rect x="0" y="17" width="4" height="4" fill="url(#glitchGradientCompact)" opacity="0.95"/>
    <rect x="0" y="22" width="4" height="4" fill="url(#glitchGradientCompact)" opacity="0.9"/>
    <rect x="0" y="25" width="15" height="4" fill="url(#glitchGradientCompact)" opacity="0.95"/>
    
    <!-- Glitch pentru E -->
    <rect x="2" y="2" width="5" height="3" fill="url(#redGlitch)" opacity="0.6"/>
    <rect x="1" y="26" width="6" height="3" fill="url(#greenGlitch)" opacity="0.5"/>
  </g>

  <!-- X - MULT MAI GROS -->
  <g transform="translate(135, 12)">
    <rect x="0" y="0" width="4" height="4" fill="url(#glitchGradientCompact)" opacity="0.95"/>
    <rect x="13" y="0" width="4" height="4" fill="url(#glitchGradientCompact)" opacity="0.95"/>
    <rect x="3" y="5" width="4" height="4" fill="url(#glitchGradientCompact)" opacity="0.9"/>
    <rect x="10" y="5" width="4" height="4" fill="url(#glitchGradientCompact)" opacity="0.9"/>
    <rect x="6" y="10" width="5" height="4" fill="url(#glitchGradientCompact)" opacity="0.95"/>
    <rect x="7" y="12" width="3" height="4" fill="url(#glitchGradientCompact)" opacity="0.9"/>
    <rect x="6" y="15" width="5" height="4" fill="url(#glitchGradientCompact)" opacity="0.95"/>
    <rect x="3" y="20" width="4" height="4" fill="url(#glitchGradientCompact)" opacity="0.9"/>
    <rect x="10" y="20" width="4" height="4" fill="url(#glitchGradientCompact)" opacity="0.9"/>
    <rect x="0" y="25" width="4" height="4" fill="url(#glitchGradientCompact)" opacity="0.95"/>
    <rect x="13" y="25" width="4" height="4" fill="url(#glitchGradientCompact)" opacity="0.95"/>
    
    <!-- Glitch puternic pentru X -->
    <rect x="2" y="2" width="3" height="5" fill="url(#redGlitch)" opacity="0.7"/>
    <rect x="11" y="22" width="4" height="4" fill="url(#greenGlitch)" opacity="0.6"/>
    <rect x="7" y="11" width="4" height="3" fill="url(#blueGlitch)" opacity="0.5"/>
  </g>

  <!-- Efecte de glitch random -->
  <g opacity="0.4">
    <rect x="25" y="18" width="2" height="8" fill="#ff0000"/>
    <rect x="70" y="28" width="4" height="2" fill="#00ff00"/>
    <rect x="115" y="22" width="2" height="4" fill="#0088ff"/>
    <rect x="150" y="35" width="3" height="2" fill="#ffff00"/>
  </g>
  
  <!-- Scanlines subtile -->
  <defs>
    <pattern id="scanlinesCompact" patternUnits="userSpaceOnUse" width="1" height="3">
      <rect width="1" height="1" fill="rgba(255,255,255,0.1)"/>
      <rect y="1" width="1" height="2" fill="rgba(0,0,0,0)"/>
    </pattern>
  </defs>
  <rect x="0" y="0" width="200" height="60" fill="url(#scanlinesCompact)" opacity="0.3"/>
</svg>