<svg width="400" height="120" viewBox="0 0 400 120" xmlns="http://www.w3.org/2000/svg">
  <defs>
    <!-- Gradienturi inspirate din logo-ul original -->
    <linearGradient id="cyanGradient" x1="0%" y1="0%" x2="100%" y2="100%">
      <stop offset="0%" style="stop-color:#00ffff;stop-opacity:1" />
      <stop offset="50%" style="stop-color:#0088aa;stop-opacity:1" />
      <stop offset="100%" style="stop-color:#006677;stop-opacity:1" />
    </linearGradient>
    
    <linearGradient id="greenGradient" x1="0%" y1="0%" x2="100%" y2="100%">
      <stop offset="0%" style="stop-color:#44ff44;stop-opacity:1" />
      <stop offset="50%" style="stop-color:#228822;stop-opacity:1" />
      <stop offset="100%" style="stop-color:#116611;stop-opacity:1" />
    </linearGradient>
    
    <linearGradient id="yellowGradient" x1="0%" y1="0%" x2="100%" y2="100%">
      <stop offset="0%" style="stop-color:#ffff44;stop-opacity:1" />
      <stop offset="50%" style="stop-color:#aaaa22;stop-opacity:1" />
      <stop offset="100%" style="stop-color:#777711;stop-opacity:1" />
    </linearGradient>
    
    <linearGradient id="orangeGradient" x1="0%" y1="0%" x2="100%" y2="100%">
      <stop offset="0%" style="stop-color:#ff8844;stop-opacity:1" />
      <stop offset="50%" style="stop-color:#aa4422;stop-opacity:1" />
      <stop offset="100%" style="stop-color:#772211;stop-opacity:1" />
    </linearGradient>
    
    <!-- Pattern pentru efectul fragmentat -->
    <pattern id="fragmentPattern" patternUnits="userSpaceOnUse" width="2" height="6">
      <rect width="1" height="6" fill="rgba(0,0,0,0.1)"/>
      <rect x="1" width="1" height="6" fill="rgba(255,255,255,0.1)"/>
    </pattern>
    
    <!-- Shadow filter -->
    <filter id="shadow" x="-50%" y="-50%" width="200%" height="200%">
      <feDropShadow dx="2" dy="4" stdDeviation="3" flood-color="rgba(0,0,0,0.3)"/>
    </filter>
  </defs>

  <!-- V - stil fragmentat 3D -->
  <g transform="translate(20, 25)">
    <!-- Layer de fundal pentru efect 3D -->
    <g transform="translate(2, 2)" opacity="0.3">
      <rect x="0" y="0" width="8" height="6" fill="#333333"/>
      <rect x="0" y="8" width="8" height="6" fill="#333333"/>
      <rect x="2" y="16" width="6" height="6" fill="#333333"/>
      <rect x="4" y="24" width="4" height="6" fill="#333333"/>
      <rect x="6" y="32" width="2" height="6" fill="#333333"/>
      
      <rect x="20" y="0" width="8" height="6" fill="#333333"/>
      <rect x="20" y="8" width="8" height="6" fill="#333333"/>
      <rect x="20" y="16" width="6" height="6" fill="#333333"/>
      <rect x="18" y="24" width="4" height="6" fill="#333333"/>
      <rect x="16" y="32" width="2" height="6" fill="#333333"/>
    </g>
    
    <!-- Layer principal -->
    <rect x="0" y="0" width="8" height="6" fill="url(#cyanGradient)" filter="url(#shadow)"/>
    <rect x="0" y="8" width="8" height="6" fill="url(#cyanGradient)"/>
    <rect x="2" y="16" width="6" height="6" fill="url(#cyanGradient)"/>
    <rect x="4" y="24" width="4" height="6" fill="url(#cyanGradient)"/>
    <rect x="6" y="32" width="2" height="6" fill="url(#cyanGradient)"/>
    
    <rect x="20" y="0" width="8" height="6" fill="url(#cyanGradient)" filter="url(#shadow)"/>
    <rect x="20" y="8" width="8" height="6" fill="url(#cyanGradient)"/>
    <rect x="20" y="16" width="6" height="6" fill="url(#cyanGradient)"/>
    <rect x="18" y="24" width="4" height="6" fill="url(#cyanGradient)"/>
    <rect x="16" y="32" width="2" height="6" fill="url(#cyanGradient)"/>
    
    <!-- Pattern fragmentat -->
    <rect x="0" y="0" width="28" height="38" fill="url(#fragmentPattern)" opacity="0.4"/>
  </g>

  <!-- O - verde -->
  <g transform="translate(75, 25)">
    <!-- Shadow -->
    <g transform="translate(2, 2)" opacity="0.3">
      <rect x="0" y="0" width="24" height="6" fill="#333333"/>
      <rect x="0" y="8" width="6" height="22" fill="#333333"/>
      <rect x="18" y="8" width="6" height="22" fill="#333333"/>
      <rect x="0" y="32" width="24" height="6" fill="#333333"/>
    </g>
    
    <rect x="0" y="0" width="24" height="6" fill="url(#greenGradient)" filter="url(#shadow)"/>
    <rect x="0" y="8" width="6" height="22" fill="url(#greenGradient)"/>
    <rect x="18" y="8" width="6" height="22" fill="url(#greenGradient)"/>
    <rect x="0" y="32" width="24" height="6" fill="url(#greenGradient)"/>
    
    <rect x="0" y="0" width="24" height="38" fill="url(#fragmentPattern)" opacity="0.4"/>
  </g>

  <!-- N - galben -->
  <g transform="translate(120, 25)">
    <!-- Shadow -->
    <g transform="translate(2, 2)" opacity="0.3">
      <rect x="0" y="0" width="6" height="38" fill="#333333"/>
      <rect x="6" y="6" width="4" height="6" fill="#333333"/>
      <rect x="10" y="12" width="4" height="6" fill="#333333"/>
      <rect x="14" y="18" width="4" height="6" fill="#333333"/>
      <rect x="18" y="24" width="4" height="6" fill="#333333"/>
      <rect x="22" y="0" width="6" height="38" fill="#333333"/>
    </g>
    
    <rect x="0" y="0" width="6" height="38" fill="url(#yellowGradient)" filter="url(#shadow)"/>
    <rect x="6" y="6" width="4" height="6" fill="url(#yellowGradient)"/>
    <rect x="10" y="12" width="4" height="6" fill="url(#yellowGradient)"/>
    <rect x="14" y="18" width="4" height="6" fill="url(#yellowGradient)"/>
    <rect x="18" y="24" width="4" height="6" fill="url(#yellowGradient)"/>
    <rect x="22" y="0" width="6" height="38" fill="url(#yellowGradient)"/>
    
    <rect x="0" y="0" width="28" height="38" fill="url(#fragmentPattern)" opacity="0.4"/>
  </g>

  <!-- E - portocaliu -->
  <g transform="translate(170, 25)">
    <!-- Shadow -->
    <g transform="translate(2, 2)" opacity="0.3">
      <rect x="0" y="0" width="24" height="6" fill="#333333"/>
      <rect x="0" y="8" width="6" height="6" fill="#333333"/>
      <rect x="0" y="16" width="18" height="6" fill="#333333"/>
      <rect x="0" y="24" width="6" height="6" fill="#333333"/>
      <rect x="0" y="32" width="24" height="6" fill="#333333"/>
    </g>
    
    <rect x="0" y="0" width="24" height="6" fill="url(#orangeGradient)" filter="url(#shadow)"/>
    <rect x="0" y="8" width="6" height="6" fill="url(#orangeGradient)"/>
    <rect x="0" y="16" width="18" height="6" fill="url(#orangeGradient)"/>
    <rect x="0" y="24" width="6" height="6" fill="url(#orangeGradient)"/>
    <rect x="0" y="32" width="24" height="6" fill="url(#orangeGradient)"/>
    
    <rect x="0" y="0" width="24" height="38" fill="url(#fragmentPattern)" opacity="0.4"/>
  </g>

  <!-- X - mix de culori cu tranziție -->
  <g transform="translate(215, 25)">
    <!-- Shadow -->
    <g transform="translate(2, 2)" opacity="0.3">
      <rect x="0" y="0" width="6" height="6" fill="#333333"/>
      <rect x="18" y="0" width="6" height="6" fill="#333333"/>
      <rect x="4" y="8" width="6" height="6" fill="#333333"/>
      <rect x="14" y="8" width="6" height="6" fill="#333333"/>
      <rect x="8" y="16" width="8" height="6" fill="#333333"/>
      <rect x="4" y="24" width="6" height="6" fill="#333333"/>
      <rect x="14" y="24" width="6" height="6" fill="#333333"/>
      <rect x="0" y="32" width="6" height="6" fill="#333333"/>
      <rect x="18" y="32" width="6" height="6" fill="#333333"/>
    </g>
    
    <!-- Gradient multi-color pentru X -->
    <defs>
      <linearGradient id="multiColorGradient" x1="0%" y1="0%" x2="100%" y2="100%">
        <stop offset="0%" style="stop-color:#00ffff;stop-opacity:1" />
        <stop offset="33%" style="stop-color:#44ff44;stop-opacity:1" />
        <stop offset="66%" style="stop-color:#ffff44;stop-opacity:1" />
        <stop offset="100%" style="stop-color:#ff8844;stop-opacity:1" />
      </linearGradient>
    </defs>
    
    <rect x="0" y="0" width="6" height="6" fill="url(#multiColorGradient)" filter="url(#shadow)"/>
    <rect x="18" y="0" width="6" height="6" fill="url(#multiColorGradient)"/>
    <rect x="4" y="8" width="6" height="6" fill="url(#multiColorGradient)"/>
    <rect x="14" y="8" width="6" height="6" fill="url(#multiColorGradient)"/>
    <rect x="8" y="16" width="8" height="6" fill="url(#multiColorGradient)"/>
    <rect x="4" y="24" width="6" height="6" fill="url(#multiColorGradient)"/>
    <rect x="14" y="24" width="6" height="6" fill="url(#multiColorGradient)"/>
    <rect x="0" y="32" width="6" height="6" fill="url(#multiColorGradient)"/>
    <rect x="18" y="32" width="6" height="6" fill="url(#multiColorGradient)"/>
    
    <rect x="0" y="0" width="24" height="38" fill="url(#fragmentPattern)" opacity="0.4"/>
  </g>

  <!-- Efecte de fundal fragmentate -->
  <g opacity="0.2">
    <rect x="10" y="15" width="2" height="8" fill="#666666"/>
    <rect x="60" y="10" width="3" height="12" fill="#666666"/>
    <rect x="110" y="20" width="2" height="6" fill="#666666"/>
    <rect x="160" y="12" width="3" height="10" fill="#666666"/>
    <rect x="200" y="18" width="2" height="8" fill="#666666"/>
  </g>
</svg>