<svg width="120" height="32" viewBox="0 0 120 32" xmlns="http://www.w3.org/2000/svg">
  <defs>
    <!-- Gradient retro cu mai multe culori -->
    <linearGradient id="retroGradient2" x1="0%" y1="0%" x2="100%" y2="0%">
      <stop offset="0%" style="stop-color:#ff6b35;stop-opacity:1" />
      <stop offset="15%" style="stop-color:#f7931e;stop-opacity:1" />
      <stop offset="30%" style="stop-color:#ffd23f;stop-opacity:1" />
      <stop offset="45%" style="stop-color:#cddc39;stop-opacity:1" />
      <stop offset="60%" style="stop-color:#8bc34a;stop-opacity:1" />
      <stop offset="75%" style="stop-color:#4caf50;stop-opacity:1" />
      <stop offset="90%" style="stop-color:#00bcd4;stop-opacity:1" />
      <stop offset="100%" style="stop-color:#2196f3;stop-opacity:1" />
    </linearGradient>
    
    <!-- Pattern pentru scanlines -->
    <pattern id="scanlines2" patternUnits="userSpaceOnUse" width="1" height="2">
      <rect width="1" height="1" fill="rgba(0,0,0,0.15)"/>
      <rect y="1" width="1" height="1" fill="rgba(0,0,0,0)"/>
    </pattern>
  </defs>
  
  <!-- V -->
  <g>
    <rect x="2" y="8" width="5" height="1.5" fill="url(#retroGradient2)" opacity="0.95"/>
    <rect x="2" y="10" width="5" height="1.5" fill="url(#retroGradient2)" opacity="0.85"/>
    <rect x="3" y="12" width="4" height="1.5" fill="url(#retroGradient2)" opacity="0.95"/>
    <rect x="4" y="14" width="3" height="1.5" fill="url(#retroGradient2)" opacity="0.85"/>
    <rect x="5" y="16" width="2" height="1.5" fill="url(#retroGradient2)" opacity="0.95"/>
    <rect x="5.5" y="18" width="1" height="1.5" fill="url(#retroGradient2)" opacity="0.85"/>
    
    <rect x="12" y="8" width="5" height="1.5" fill="url(#retroGradient2)" opacity="0.95"/>
    <rect x="12" y="10" width="5" height="1.5" fill="url(#retroGradient2)" opacity="0.85"/>
    <rect x="12" y="12" width="4" height="1.5" fill="url(#retroGradient2)" opacity="0.95"/>
    <rect x="11" y="14" width="3" height="1.5" fill="url(#retroGradient2)" opacity="0.85"/>
    <rect x="10" y="16" width="2" height="1.5" fill="url(#retroGradient2)" opacity="0.95"/>
    <rect x="9.5" y="18" width="1" height="1.5" fill="url(#retroGradient2)" opacity="0.85"/>
  </g>

  <!-- O -->
  <g>
    <rect x="22" y="8" width="8" height="1.5" fill="url(#retroGradient2)" opacity="0.95"/>
    <rect x="21" y="10" width="1.5" height="1.5" fill="url(#retroGradient2)" opacity="0.85"/>
    <rect x="28.5" y="10" width="1.5" height="1.5" fill="url(#retroGradient2)" opacity="0.85"/>
    <rect x="21" y="12" width="1.5" height="1.5" fill="url(#retroGradient2)" opacity="0.95"/>
    <rect x="28.5" y="12" width="1.5" height="1.5" fill="url(#retroGradient2)" opacity="0.95"/>
    <rect x="21" y="14" width="1.5" height="1.5" fill="url(#retroGradient2)" opacity="0.85"/>
    <rect x="28.5" y="14" width="1.5" height="1.5" fill="url(#retroGradient2)" opacity="0.85"/>
    <rect x="21" y="16" width="1.5" height="1.5" fill="url(#retroGradient2)" opacity="0.95"/>
    <rect x="28.5" y="16" width="1.5" height="1.5" fill="url(#retroGradient2)" opacity="0.95"/>
    <rect x="22" y="18" width="8" height="1.5" fill="url(#retroGradient2)" opacity="0.85"/>
  </g>

  <!-- N -->
  <g>
    <rect x="36" y="8" width="1.5" height="12" fill="url(#retroGradient2)" opacity="0.95"/>
    <rect x="38" y="10" width="1.5" height="1.5" fill="url(#retroGradient2)" opacity="0.85"/>
    <rect x="39.5" y="12" width="1.5" height="1.5" fill="url(#retroGradient2)" opacity="0.95"/>
    <rect x="41" y="14" width="1.5" height="1.5" fill="url(#retroGradient2)" opacity="0.85"/>
    <rect x="42.5" y="16" width="1.5" height="1.5" fill="url(#retroGradient2)" opacity="0.95"/>
    <rect x="44" y="8" width="1.5" height="12" fill="url(#retroGradient2)" opacity="0.85"/>
  </g>

  <!-- E -->
  <g>
    <rect x="50" y="8" width="8" height="1.5" fill="url(#retroGradient2)" opacity="0.95"/>
    <rect x="50" y="10" width="1.5" height="1.5" fill="url(#retroGradient2)" opacity="0.85"/>
    <rect x="50" y="12" width="1.5" height="1.5" fill="url(#retroGradient2)" opacity="0.95"/>
    <rect x="50" y="14" width="6" height="1.5" fill="url(#retroGradient2)" opacity="0.85"/>
    <rect x="50" y="16" width="1.5" height="1.5" fill="url(#retroGradient2)" opacity="0.95"/>
    <rect x="50" y="18" width="8" height="1.5" fill="url(#retroGradient2)" opacity="0.85"/>
  </g>

  <!-- X -->
  <g>
    <rect x="64" y="8" width="1.5" height="1.5" fill="url(#retroGradient2)" opacity="0.95"/>
    <rect x="70.5" y="8" width="1.5" height="1.5" fill="url(#retroGradient2)" opacity="0.95"/>
    <rect x="65.5" y="10" width="1.5" height="1.5" fill="url(#retroGradient2)" opacity="0.85"/>
    <rect x="69" y="10" width="1.5" height="1.5" fill="url(#retroGradient2)" opacity="0.85"/>
    <rect x="67" y="12" width="1.5" height="1.5" fill="url(#retroGradient2)" opacity="0.95"/>
    <rect x="67.5" y="14" width="1" height="1.5" fill="url(#retroGradient2)" opacity="0.85"/>
    <rect x="67" y="16" width="1.5" height="1.5" fill="url(#retroGradient2)" opacity="0.95"/>
    <rect x="65.5" y="18" width="1.5" height="1.5" fill="url(#retroGradient2)" opacity="0.85"/>
    <rect x="69" y="18" width="1.5" height="1.5" fill="url(#retroGradient2)" opacity="0.85"/>
    <rect x="64" y="20" width="1.5" height="1.5" fill="url(#retroGradient2)" opacity="0.95"/>
    <rect x="70.5" y="20" width="1.5" height="1.5" fill="url(#retroGradient2)" opacity="0.95"/>
  </g>

  <!-- Efect de scanline peste tot pentru look retro -->
  <rect x="0" y="0" width="120" height="32" fill="url(#scanlines2)" opacity="0.4"/>
  
  <!-- Glow effect subtil -->
  <rect x="-2" y="6" width="124" height="20" fill="url(#retroGradient2)" opacity="0.1" rx="2"/>
</svg>