<svg width="500" height="150" viewBox="0 0 500 150" xmlns="http://www.w3.org/2000/svg">
  <defs>
    <!-- Gradient principal cu culori intense pentru glitch -->
    <linearGradient id="glitchGradient" x1="0%" y1="0%" x2="100%" y2="0%">
      <stop offset="0%" style="stop-color:#ff4444;stop-opacity:1" />
      <stop offset="15%" style="stop-color:#ff6644;stop-opacity:1" />
      <stop offset="30%" style="stop-color:#ffaa44;stop-opacity:1" />
      <stop offset="45%" style="stop-color:#ffff44;stop-opacity:1" />
      <stop offset="60%" style="stop-color:#88ff44;stop-opacity:1" />
      <stop offset="75%" style="stop-color:#44ff88;stop-opacity:1" />
      <stop offset="90%" style="stop-color:#44ffff;stop-opacity:1" />
      <stop offset="100%" style="stop-color:#4488ff;stop-opacity:1" />
    </linearGradient>
    
    <!-- Gradient pentru efectul de aberrație cromatică -->
    <linearGradient id="redShift" x1="0%" y1="0%" x2="100%" y2="0%">
      <stop offset="0%" style="stop-color:#ff0000;stop-opacity:0.8" />
      <stop offset="100%" style="stop-color:#ff4444;stop-opacity:0.6" />
    </linearGradient>
    
    <linearGradient id="greenShift" x1="0%" y1="0%" x2="100%" y2="0%">
      <stop offset="0%" style="stop-color:#00ff00;stop-opacity:0.7" />
      <stop offset="100%" style="stop-color:#44ff44;stop-opacity:0.5" />
    </linearGradient>
    
    <linearGradient id="blueShift" x1="0%" y1="0%" x2="100%" y2="0%">
      <stop offset="0%" style="stop-color:#0088ff;stop-opacity:0.6" />
      <stop offset="100%" style="stop-color:#4488ff;stop-opacity:0.4" />
    </linearGradient>
  </defs>

  <!-- V - EXTRA GROS pentru vizibilitate maximă -->
  <g transform="translate(25, 30)">
    <!-- Main V shape - FOARTE GROS -->
    <rect x="0" y="0" width="12" height="8" fill="url(#glitchGradient)" opacity="0.95"/>
    <rect x="0" y="10" width="12" height="8" fill="url(#glitchGradient)" opacity="0.9"/>
    <rect x="2" y="20" width="10" height="8" fill="url(#glitchGradient)" opacity="0.95"/>
    <rect x="4" y="30" width="8" height="8" fill="url(#glitchGradient)" opacity="0.9"/>
    <rect x="6" y="40" width="6" height="8" fill="url(#glitchGradient)" opacity="0.95"/>
    <rect x="7" y="50" width="4" height="8" fill="url(#glitchGradient)" opacity="0.9"/>
    <rect x="8" y="60" width="2" height="8" fill="url(#glitchGradient)" opacity="0.95"/>
    
    <rect x="30" y="0" width="12" height="8" fill="url(#glitchGradient)" opacity="0.95"/>
    <rect x="30" y="10" width="12" height="8" fill="url(#glitchGradient)" opacity="0.9"/>
    <rect x="30" y="20" width="10" height="8" fill="url(#glitchGradient)" opacity="0.95"/>
    <rect x="28" y="30" width="8" height="8" fill="url(#glitchGradient)" opacity="0.9"/>
    <rect x="26" y="40" width="6" height="8" fill="url(#glitchGradient)" opacity="0.95"/>
    <rect x="25" y="50" width="4" height="8" fill="url(#glitchGradient)" opacity="0.9"/>
    <rect x="24" y="60" width="2" height="8" fill="url(#glitchGradient)" opacity="0.95"/>
    
    <!-- Glitch layers pentru V -->
    <rect x="2" y="5" width="8" height="6" fill="url(#redShift)" opacity="0.6"/>
    <rect x="32" y="25" width="6" height="6" fill="url(#greenShift)" opacity="0.5"/>
    <rect x="6" y="55" width="12" height="4" fill="url(#blueShift)" opacity="0.4"/>
  </g>

  <!-- O - EXTRA GROS -->
  <g transform="translate(100, 30)">
    <rect x="0" y="0" width="30" height="8" fill="url(#glitchGradient)" opacity="0.95"/>
    <rect x="0" y="10" width="8" height="8" fill="url(#glitchGradient)" opacity="0.9"/>
    <rect x="22" y="10" width="8" height="8" fill="url(#glitchGradient)" opacity="0.9"/>
    <rect x="0" y="20" width="8" height="8" fill="url(#glitchGradient)" opacity="0.95"/>
    <rect x="22" y="20" width="8" height="8" fill="url(#glitchGradient)" opacity="0.95"/>
    <rect x="0" y="30" width="8" height="8" fill="url(#glitchGradient)" opacity="0.9"/>
    <rect x="22" y="30" width="8" height="8" fill="url(#glitchGradient)" opacity="0.9"/>
    <rect x="0" y="40" width="8" height="8" fill="url(#glitchGradient)" opacity="0.95"/>
    <rect x="22" y="40" width="8" height="8" fill="url(#glitchGradient)" opacity="0.95"/>
    <rect x="0" y="50" width="8" height="8" fill="url(#glitchGradient)" opacity="0.9"/>
    <rect x="22" y="50" width="8" height="8" fill="url(#glitchGradient)" opacity="0.9"/>
    <rect x="0" y="60" width="30" height="8" fill="url(#glitchGradient)" opacity="0.9"/>
    
    <!-- Glitch pentru O -->
    <rect x="3" y="15" width="6" height="6" fill="url(#redShift)" opacity="0.7"/>
    <rect x="24" y="35" width="5" height="6" fill="url(#greenShift)" opacity="0.6"/>
  </g>

  <!-- N - EXTRA GROS -->
  <g transform="translate(160, 30)">
    <rect x="0" y="0" width="8" height="68" fill="url(#glitchGradient)" opacity="0.95"/>
    <rect x="10" y="10" width="6" height="8" fill="url(#glitchGradient)" opacity="0.9"/>
    <rect x="16" y="20" width="6" height="8" fill="url(#glitchGradient)" opacity="0.95"/>
    <rect x="22" y="30" width="6" height="8" fill="url(#glitchGradient)" opacity="0.9"/>
    <rect x="28" y="40" width="6" height="8" fill="url(#glitchGradient)" opacity="0.95"/>
    <rect x="34" y="50" width="6" height="8" fill="url(#glitchGradient)" opacity="0.9"/>
    <rect x="40" y="0" width="8" height="68" fill="url(#glitchGradient)" opacity="0.9"/>
    
    <!-- Glitch pentru N -->
    <rect x="2" y="18" width="6" height="12" fill="url(#blueShift)" opacity="0.5"/>
    <rect x="42" y="25" width="5" height="8" fill="url(#redShift)" opacity="0.6"/>
  </g>

  <!-- E - EXTRA GROS -->
  <g transform="translate(220, 30)">
    <rect x="0" y="0" width="30" height="8" fill="url(#glitchGradient)" opacity="0.95"/>
    <rect x="0" y="10" width="8" height="8" fill="url(#glitchGradient)" opacity="0.9"/>
    <rect x="0" y="20" width="8" height="8" fill="url(#glitchGradient)" opacity="0.95"/>
    <rect x="0" y="28" width="24" height="8" fill="url(#glitchGradient)" opacity="0.9"/>
    <rect x="0" y="38" width="8" height="8" fill="url(#glitchGradient)" opacity="0.95"/>
    <rect x="0" y="48" width="8" height="8" fill="url(#glitchGradient)" opacity="0.9"/>
    <rect x="0" y="60" width="30" height="8" fill="url(#glitchGradient)" opacity="0.95"/>
    
    <!-- Glitch pentru E -->
    <rect x="3" y="3" width="12" height="6" fill="url(#greenShift)" opacity="0.6"/>
    <rect x="2" y="62" width="15" height="5" fill="url(#blueShift)" opacity="0.5"/>
  </g>

  <!-- X - EXTRA GROS -->
  <g transform="translate(280, 30)">
    <rect x="0" y="0" width="8" height="8" fill="url(#glitchGradient)" opacity="0.95"/>
    <rect x="24" y="0" width="8" height="8" fill="url(#glitchGradient)" opacity="0.95"/>
    <rect x="6" y="10" width="8" height="8" fill="url(#glitchGradient)" opacity="0.9"/>
    <rect x="18" y="10" width="8" height="8" fill="url(#glitchGradient)" opacity="0.9"/>
    <rect x="12" y="20" width="8" height="8" fill="url(#glitchGradient)" opacity="0.95"/>
    <rect x="14" y="28" width="4" height="8" fill="url(#glitchGradient)" opacity="0.9"/>
    <rect x="12" y="38" width="8" height="8" fill="url(#glitchGradient)" opacity="0.95"/>
    <rect x="6" y="50" width="8" height="8" fill="url(#glitchGradient)" opacity="0.9"/>
    <rect x="18" y="50" width="8" height="8" fill="url(#glitchGradient)" opacity="0.9"/>
    <rect x="0" y="60" width="8" height="8" fill="url(#glitchGradient)" opacity="0.95"/>
    <rect x="24" y="60" width="8" height="8" fill="url(#glitchGradient)" opacity="0.95"/>
    
    <!-- Glitch puternic pentru X -->
    <rect x="3" y="3" width="6" height="12" fill="url(#redShift)" opacity="0.8"/>
    <rect x="20" y="52" width="8" height="8" fill="url(#greenShift)" opacity="0.7"/>
    <rect x="13" y="25" width="10" height="6" fill="url(#blueShift)" opacity="0.6"/>
  </g>

  <!-- Efecte suplimentare de glitch random -->
  <g opacity="0.3">
    <rect x="60" y="45" width="3" height="20" fill="#ff0000"/>
    <rect x="140" y="65" width="12" height="3" fill="#00ff00"/>
    <rect x="200" y="50" width="4" height="12" fill="#0088ff"/>
    <rect x="320" y="75" width="8" height="3" fill="#ffff00"/>
  </g>
  
  <!-- Scanlines subtile -->
  <defs>
    <pattern id="scanlines" patternUnits="userSpaceOnUse" width="1" height="4">
      <rect width="1" height="2" fill="rgba(255,255,255,0.1)"/>
      <rect y="2" width="1" height="2" fill="rgba(0,0,0,0)"/>
    </pattern>
  </defs>
  <rect x="0" y="0" width="500" height="150" fill="url(#scanlines)" opacity="0.2"/>
</svg>